<svg xmlns="http://www.w3.org/2000/svg" width="360" height="640" viewBox="0 0 360 640">
  <defs>
    <linearGradient id="paper" x1="0" y1="0" x2="0" y2="1">
      <stop offset="0%" stop-color="#f7f3ee"/>
      <stop offset="100%" stop-color="#efe9e1"/>
    </linearGradient>
  </defs>
  <rect width="360" height="640" fill="url(#paper)"/>
  <rect x="18" y="16" width="324" height="608" rx="14" fill="#fbf9f6" stroke="#e2dbd1"/>

  <text x="36" y="50" fill="#1f2a33" font-size="22" font-family="Newsreader, serif" font-weight="700">Algo Trader</text>
  <text x="36" y="72" fill="#58656f" font-size="12" font-family="IBM Plex Mono, monospace">Polymarket Extension</text>

  <rect x="36" y="92" width="288" height="1" fill="#e2dbd1"/>

  <text x="36" y="122" fill="#8a6a50" font-size="11" font-family="IBM Plex Mono, monospace">STATUS</text>
  <text x="36" y="148" fill="#1f2a33" font-size="16" font-family="Newsreader, serif" font-weight="600">Unlocked</text>
  <text x="36" y="170" fill="#6b7a86" font-size="12" font-family="Inter, sans-serif">0x9a2…f12</text>

  <rect x="210" y="132" width="114" height="34" rx="8" fill="#1f2a33"/>
  <text x="267" y="149" fill="#fbf9f6" font-size="11" font-family="IBM Plex Mono, monospace" text-anchor="middle" dominant-baseline="middle">LOCK</text>

  <rect x="36" y="196" width="288" height="86" rx="12" fill="#ffffff" stroke="#e2dbd1"/>
  <text x="52" y="222" fill="#1f2a33" font-size="13" font-family="Newsreader, serif" font-weight="600">Create Order</text>
  <text x="52" y="244" fill="#6b7a86" font-size="11" font-family="IBM Plex Mono, monospace">Trailing Stop • TWAP • Stop</text>
  <rect x="52" y="254" width="140" height="16" rx="8" fill="#e7dccf"/>
  <rect x="200" y="254" width="112" height="16" rx="8" fill="#f6e8d6"/>

  <text x="36" y="318" fill="#8a6a50" font-size="11" font-family="IBM Plex Mono, monospace">POSITIONS</text>
  <rect x="36" y="330" width="288" height="64" rx="10" fill="#ffffff" stroke="#e2dbd1"/>
  <text x="52" y="356" fill="#1f2a33" font-size="12" font-family="Newsreader, serif">Election 2024 — Yes</text>
  <text x="52" y="376" fill="#6b7a86" font-size="11" font-family="IBM Plex Mono, monospace">$54.22 • +8.2%</text>
  <rect x="250" y="350" width="60" height="24" rx="6" fill="#1f2a33"/>
  <text x="280" y="362" fill="#fbf9f6" font-size="10" font-family="IBM Plex Mono, monospace" text-anchor="middle" dominant-baseline="middle">SELL</text>

  <text x="36" y="430" fill="#8a6a50" font-size="11" font-family="IBM Plex Mono, monospace">ORDERS</text>
  <rect x="36" y="442" width="288" height="96" rx="12" fill="#ffffff" stroke="#e2dbd1"/>
  <text x="52" y="468" fill="#1f2a33" font-size="12" font-family="Newsreader, serif">Trailing Stop • Active</text>
  <text x="52" y="488" fill="#6b7a86" font-size="11" font-family="IBM Plex Mono, monospace">Trail 4.5% • TP $0.62</text>
  <rect x="52" y="506" width="80" height="6" rx="3" fill="#efe9e1"/>
  <rect x="52" y="506" width="52" height="6" rx="3" fill="#8a6a50"/>

  <rect x="36" y="562" width="288" height="44" rx="10" fill="#1f2a33"/>
  <text x="180" y="584" fill="#fbf9f6" font-size="12" font-family="IBM Plex Mono, monospace" text-anchor="middle" dominant-baseline="middle">OPEN HISTORY</text>
</svg>
